<?xml version="1.0" encoding="utf-8"?>
<!-- Generator: Adobe Illustrator 25.0.1, SVG Export Plug-In . SVG Version: 6.00 Build 0)  -->
<svg version="1.1" id="Layer_1" xmlns="http://www.w3.org/2000/svg" xmlns:xlink="http://www.w3.org/1999/xlink" x="0px" y="0px"
	 viewBox="0 0 85 85" style="enable-background:new 0 0 85 85;" xml:space="preserve">
<style type="text/css">
	.st0{fill:#FFFFFF;}
	.st1{fill:#E8F4FC;}
	.st2{fill:#D1E5F5;}
	.st3{fill:#F7C600;}
	.st4{fill:#F7D64C;}
	.st5{opacity:0.1;enable-background:new    ;}
	.st6{opacity:0.3;fill:#FFFFFF;enable-background:new    ;}
	.st7{fill:#394049;}
</style>
<g>
	<path class="st0" d="M42.5,26.2c7.2,0,13.1,5.9,13.1,13.1s-5.9,13.1-13.1,13.1s-13.1-5.9-13.1-13.1S35.3,26.2,42.5,26.2z"/>
</g>
<g>
	<path class="st1" d="M47.3,39c0-2.5-2.1-4.6-4.6-4.6c-2.5,0-4.6,2.1-4.6,4.6c-1.3,0-2.3,1-2.3,2.3c0,1.3,1,2.3,2.3,2.3h9.2
		c1.3,0,2.3-1,2.3-2.3C49.6,40,48.6,39,47.3,39z"/>
	<path class="st2" d="M47.3,39c0-2.5-2.1-4.6-4.6-4.6v9.2h4.6c1.3,0,2.3-1,2.3-2.3C49.6,40,48.6,39,47.3,39z"/>
	<path class="st3" d="M44,38h2c0.2,0,0.4,0.3,0.2,0.5l-5.7,6.7c-0.1,0.2-0.4,0-0.4-0.2l0.8-4.3h-2c-0.2,0-0.4-0.3-0.2-0.5l5.7-6.7
		c0.1-0.2,0.4,0,0.4,0.2L44,38z"/>
	<path class="st4" d="M44,38h2c0.2,0,0.4,0.3,0.2,0.5l-5.7,6.7c-0.1,0.2-0.4,0-0.4-0.2l0.8-4.3h-2c-0.2,0-0.4-0.3-0.2-0.5l5.7-6.7
		c0.1-0.2,0.4,0,0.4,0.2L44,38z"/>
	<path class="st5" d="M40.6,44.7l0.8-4.3c0-0.1,0-0.1-0.1-0.1h-2c-0.2,0-0.4-0.3-0.2-0.4l-0.2,0.3c-0.2,0.2,0,0.5,0.2,0.5h2
		l-0.8,4.3c0,0.2,0.2,0.3,0.4,0.2l0.1-0.2C40.6,44.9,40.5,44.8,40.6,44.7z"/>
	<path class="st6" d="M43.7,36.9c0,0.3,0.2,0.5,0.4,0.5l0.2-1c0,0-0.1,0-0.1,0C43.9,36.4,43.7,36.6,43.7,36.9z M46.1,38h-1.1
		c0.1,0.4,0.5,0.7,1,0.7c0.1,0,0.1,0,0.2,0l0.2-0.3C46.4,38.2,46.3,38,46.1,38z M44.5,33.5l-1.1,1.3c0,0.6,0.4,1.1,1,1.3l0.4-2.4
		C44.9,33.4,44.6,33.3,44.5,33.5z"/>
	<g>
		<path class="st7" d="M43.2,40.1c-0.2,0-0.4-0.1-0.5-0.2c-0.1,0.1-0.3,0.2-0.5,0.2c-0.4,0-0.7-0.3-0.7-0.7c0-0.1,0.1-0.2,0.2-0.2
			s0.2,0.1,0.2,0.2c0,0.2,0.1,0.3,0.3,0.3s0.3-0.1,0.3-0.3c0-0.1,0.1-0.2,0.2-0.2s0.2,0.1,0.2,0.2c0,0.2,0.1,0.3,0.3,0.3
			s0.3-0.1,0.3-0.3c0-0.1,0.1-0.2,0.2-0.2s0.2,0.1,0.2,0.2C43.9,39.8,43.6,40.1,43.2,40.1z"/>
		<path class="st7" d="M40.8,39.3c-0.1,0-0.2-0.1-0.2-0.2v-0.2c0-0.1,0.1-0.2,0.2-0.2s0.2,0.1,0.2,0.2v0.2
			C41,39.2,40.9,39.3,40.8,39.3z"/>
		<path class="st7" d="M44.6,39.3c-0.1,0-0.2-0.1-0.2-0.2v-0.2c0-0.1,0.1-0.2,0.2-0.2s0.2,0.1,0.2,0.2v0.2
			C44.8,39.2,44.7,39.3,44.6,39.3z"/>
	</g>
</g>
</svg>
